<?xml version="1.0" encoding="utf-8"?>
<!-- Generator: Adobe Illustrator 25.0.0, SVG Export Plug-In . SVG Version: 6.00 Build 0)  -->
<svg version="1.1" xmlns="http://www.w3.org/2000/svg" xmlns:xlink="http://www.w3.org/1999/xlink" x="0px" y="0px"
	 viewBox="0 0 28.1 37.5" style="enable-background:new 0 0 28.1 37.5;" xml:space="preserve">
<style type="text/css">
	.st0{fill:#010101;}
</style>
<g id="Layer_1">
</g>
<g id="Layer_2">
	<path class="st0" d="M14.8,15.9c0.1,0.1,0.3,0.2,0.3,0.4c0.1,0.3,0,0.7-0.3,0.8l0,0l-1.2,0.5c-0.1,0-0.3,0-0.4,0
		c-0.1-0.1-0.3-0.2-0.3-0.3c-0.1-0.1-0.1-0.3,0-0.5c0.1-0.1,0.2-0.3,0.3-0.3l1.2-0.5C14.5,15.8,14.7,15.8,14.8,15.9z M25.1,0.8
		L0.9,3v0.6h0v13.8c0.4-0.3,1-0.3,1.4,0V3.9h21.3c0.9,0,1.6,0.8,1.6,1.7v28c0,0.9-0.7,1.7-1.6,1.7h-1.4c0,0.1,0,0.1-0.1,0.2
		c-0.1,0.2-0.2,0.4-0.4,0.6h1.9c0.8,0,1.6-0.4,2-1.2c1.1-0.3,1.8-1.3,1.9-2.5V3.4C27.4,2,26.4,0.8,25.1,0.8L25.1,0.8z M26.6,32.5
		c0,0.6-0.3,1.1-0.7,1.4c0-0.1,0-0.2,0-0.3v-28c0-1.4-1.1-2.5-2.4-2.5l0,0H10.2l14.9-1.3c0.9,0,1.6,0.8,1.6,1.7L26.6,32.5L26.6,32.5
		z M4.9,18c0.4,0,0.7,0.3,0.7,0.8v0v8.4c0,0.4-0.3,0.8-0.7,0.8l0,0c-0.4,0-0.7-0.3-0.7-0.8l0,0l0,0v-2.9H2.4v2.9
		c0,0.4-0.3,0.8-0.7,0.8l0,0c-0.4,0-0.7-0.3-0.7-0.8l0,0l0,0v-8.4c0-0.4,0.3-0.8,0.7-0.8l0,0c0.4,0,0.7,0.3,0.7,0.8l0,0v4h1.8v-4
		C4.2,18.3,4.5,18,4.9,18L4.9,18z M10.9,25.4v0.3c0,0.2,0,0.3-0.1,0.5c0,0.2-0.1,0.4-0.2,0.6c-0.1,0.2-0.2,0.4-0.4,0.6
		c-0.2,0.2-0.4,0.4-0.6,0.5C9.4,27.9,9,28,8.7,28c-0.4,0-0.7-0.1-1-0.2c-0.2-0.1-0.4-0.3-0.6-0.5c-0.2-0.2-0.3-0.4-0.4-0.6
		c-0.1-0.2-0.1-0.4-0.2-0.6c0-0.2,0-0.3,0-0.5v-5.1c0-0.4,0.1-0.8,0.2-1.2c0.1-0.3,0.3-0.5,0.5-0.7c0.4-0.4,0.9-0.6,1.5-0.6
		c0.3,0,0.5,0,0.8,0.1c0.3,0.1,0.5,0.3,0.7,0.5c0.2,0.2,0.4,0.5,0.5,0.8c0.1,0.4,0.2,0.8,0.2,1.2L10.9,25.4z M9.3,26.3
		c0.1-0.1,0.1-0.1,0.1-0.2c0-0.1,0-0.2,0.1-0.3c0-0.1,0-0.1,0-0.2v-0.1v-5c0-0.2,0-0.4-0.1-0.5c0-0.1-0.1-0.2-0.2-0.3
		c-0.1-0.1-0.2-0.1-0.3-0.1c-0.1,0-0.2,0-0.3,0s-0.2,0-0.2,0c-0.1,0-0.2,0.1-0.3,0.1C8.1,19.7,8,19.8,8,19.9
		c-0.1,0.2-0.1,0.4-0.1,0.6v5.1c0,0.1,0,0.2,0,0.2c0,0.1,0,0.2,0.1,0.3s0.1,0.1,0.1,0.2c0,0,0.1,0.1,0.2,0.1
		c0.1,0.1,0.3,0.1,0.4,0.1c0.1,0,0.3,0,0.4-0.1C9.1,26.3,9.2,26.3,9.3,26.3z M16.2,25.3v0.3c0,0.2,0,0.3-0.1,0.5
		c0,0.2-0.1,0.4-0.2,0.6c-0.1,0.2-0.2,0.4-0.4,0.6c-0.2,0.2-0.4,0.4-0.6,0.5c-0.3,0.2-0.7,0.2-1,0.2c-0.4,0-0.7-0.1-1-0.2
		c-0.2-0.1-0.4-0.3-0.6-0.5c-0.2-0.2-0.3-0.4-0.4-0.6c-0.1-0.2-0.1-0.4-0.2-0.6c0-0.2,0-0.3,0-0.5v-5.2c0-0.4,0.1-0.8,0.2-1.2
		c0.1-0.3,0.3-0.5,0.5-0.7c0.4-0.4,0.9-0.6,1.5-0.6c0.3,0,0.5,0,0.8,0.1c0.3,0.1,0.5,0.3,0.7,0.5c0.2,0.2,0.4,0.5,0.5,0.8
		c0.1,0.4,0.2,0.8,0.2,1.2c0,0.2-0.1,0.4-0.2,0.5c-0.3,0.3-0.7,0.3-1,0c-0.2-0.1-0.2-0.3-0.2-0.5c0-0.2,0-0.4-0.1-0.5
		c0-0.1-0.1-0.2-0.2-0.3c-0.1-0.1-0.2-0.1-0.3-0.1s-0.2,0-0.3,0c-0.1,0-0.1,0-0.2,0c-0.1,0-0.2,0.1-0.3,0.1
		c-0.1,0.1-0.2,0.2-0.2,0.3c-0.1,0.2-0.1,0.4-0.1,0.6v5.1c0,0.1,0,0.2,0,0.2c0,0.1,0,0.2,0.1,0.3c0,0.1,0.1,0.1,0.1,0.2
		c0,0,0.1,0.1,0.2,0.1c0.1,0.1,0.3,0.1,0.4,0.1c0.1,0,0.3,0,0.4-0.1c0.1,0,0.1-0.1,0.2-0.1c0.1-0.1,0.2-0.3,0.2-0.4l0-0.4v-0.1
		c0-0.1,0-0.2,0.1-0.3c0-0.1,0.1-0.2,0.2-0.3c0.1-0.1,0.3-0.1,0.4-0.1c0.1,0,0.3,0,0.4,0.1C16,24.9,16.2,25.1,16.2,25.3L16.2,25.3z
		 M21.6,25.7c0,0.2,0,0.3-0.1,0.5c0,0.2-0.1,0.4-0.2,0.6c-0.1,0.2-0.2,0.4-0.4,0.6c-0.2,0.2-0.4,0.4-0.6,0.5c-0.3,0.2-0.7,0.2-1,0.2
		c-0.4,0-0.7-0.1-1-0.2c-0.2-0.1-0.4-0.3-0.6-0.5c-0.2-0.2-0.3-0.4-0.4-0.6c-0.1-0.2-0.1-0.4-0.2-0.6c0-0.2,0-0.3,0-0.5v-6.8
		c0-0.4,0.3-0.8,0.7-0.8c0.4,0,0.7,0.3,0.7,0.8v6.8c0,0.1,0,0.2,0,0.2c0,0.1,0,0.2,0.1,0.3s0.1,0.1,0.1,0.2c0,0,0.1,0.1,0.2,0.1
		c0.1,0.1,0.3,0.1,0.4,0.1c0.1,0,0.3,0,0.4-0.1c0.1,0,0.1-0.1,0.2-0.1c0.1-0.1,0.2-0.3,0.2-0.4c0-0.1,0-0.3,0-0.4v-6.7
		c0-0.4,0.3-0.8,0.7-0.8c0.4,0,0.7,0.3,0.7,0.8v6.6C21.6,25.4,21.6,25.5,21.6,25.7L21.6,25.7z M4.5,35.7c0,0.1-0.1,0.3-0.3,0.3
		c-0.1,0-0.2,0-0.2,0c-0.2,0-0.4-0.1-0.5-0.3L2.2,33l-0.4,0.7v1.8c0,0.3-0.2,0.6-0.5,0.6l0,0c-0.1,0-0.3-0.1-0.4-0.2
		c-0.1-0.1-0.2-0.3-0.2-0.4v-6.2c0-0.3,0.2-0.6,0.5-0.6l0,0c0.1,0,0.3,0.1,0.4,0.2c0.1,0.1,0.2,0.3,0.2,0.4v2.2L3.3,29
		c0.1-0.1,0.2-0.2,0.3-0.3c0.1,0,0.3,0,0.4,0.1c0.1,0.1,0.2,0.2,0.2,0.4s0,0.3-0.1,0.4l-1.3,2.3l1.6,3.4C4.5,35.4,4.5,35.6,4.5,35.7
		L4.5,35.7z M7.8,28.7c0.3,0,0.5,0.3,0.5,0.6v0v6.3l0,0v0l0,0l0,0v0v0v0v0v0v0v0l0,0v0h0l0,0l0,0c0,0,0,0,0,0l0,0v0h0v0l0,0l0,0v0h0
		c0,0,0,0,0,0l0,0l0,0l0,0h0l0,0l0,0h0v0h0h0l0,0l0,0c0,0,0,0-0.1,0s0,0-0.1,0c0,0-0.1,0-0.1,0H7.6h0.1v0h0v0h0c0,0,0,0,0,0h0l0,0h0
		l0,0c0,0,0,0,0,0h0l0,0h0l0,0c-0.1,0-0.1-0.1-0.2-0.2v0h0v0l0,0l0,0v0L5.8,32v3.5c0,0.3-0.2,0.6-0.5,0.6l0,0
		c-0.3,0-0.5-0.3-0.5-0.6l0,0v-6.3v0v0l0,0l0,0v0l0,0l0,0v0v0v0v0l0,0v0l0,0v0l0,0l0,0l0,0c0,0,0,0,0,0h0l0,0v0l0,0c0,0,0,0,0,0l0,0
		v0h0v0c0,0,0,0,0,0l0,0l0,0l0,0H5v0l0,0l0,0h0l0,0l0,0c0,0,0.1,0,0.1,0h0c0,0,0.1,0,0.1,0h0l0,0h0l0,0h0c0,0,0,0,0,0l0,0h0h0
		c0,0,0,0,0,0l0,0c0,0,0,0,0,0h0l0,0h0l0,0v0H5.6h0l0,0l0,0l0,0h0v0l0,0h0v0l0,0l0,0l0,0v0h0v0l0,0v0v0l0,0l0,0v0v0l1.5,3.7v-3.5
		C7.3,29,7.5,28.8,7.8,28.7C7.8,28.7,7.8,28.7,7.8,28.7L7.8,28.7L7.8,28.7z M12.1,34.4c0,0.1,0,0.2,0,0.4c0,0.1-0.1,0.3-0.1,0.4
		c-0.1,0.1-0.2,0.3-0.3,0.4c-0.1,0.1-0.3,0.3-0.4,0.4c-0.2,0.1-0.5,0.2-0.8,0.2c-0.3,0-0.5,0-0.8-0.2c-0.2-0.1-0.3-0.2-0.4-0.4
		C9.1,35.5,9,35.3,9,35.1c-0.1-0.1-0.1-0.3-0.1-0.5c0-0.1,0-0.3,0-0.4v-0.2c0-0.1,0-0.2,0.1-0.3c0-0.1,0.1-0.1,0.2-0.2
		c0.1-0.1,0.2-0.1,0.3-0.1c0.1,0,0.2,0,0.3,0.1c0.1,0.1,0.1,0.1,0.1,0.2c0,0.1,0,0.2,0,0.3v0.1c0,0.1,0,0.1,0,0.2
		c0,0.1,0,0.1,0.1,0.2c0,0.1,0,0.1,0.1,0.2c0,0,0.1,0.1,0.1,0.1c0.1,0,0.2,0.1,0.3,0.1c0.1,0,0.2,0,0.3-0.1c0,0,0.1-0.1,0.1-0.1
		c0,0,0.1-0.1,0.1-0.2c0-0.1,0-0.1,0-0.2c0,0,0-0.1,0-0.2v-0.1v-5c0-0.3,0.2-0.6,0.5-0.6l0,0c0.1,0,0.3,0.1,0.4,0.2s0.2,0.3,0.2,0.4
		v4.9C12.1,34.2,12.1,34.3,12.1,34.4z M13.3,28.7c0.1,0,0.3,0,0.4,0.2c0.1,0.1,0.2,0.3,0.2,0.4v6.3c0,0.1,0,0.3-0.2,0.4
		c-0.1,0.1-0.2,0.2-0.4,0.2c-0.3,0-0.5-0.3-0.5-0.6l0,0v-6.3C12.8,29,13,28.7,13.3,28.7L13.3,28.7L13.3,28.7z M17.7,34.4
		c0,0.1,0,0.2,0,0.4c0,0.1-0.1,0.3-0.1,0.4c-0.1,0.1-0.2,0.3-0.3,0.4c-0.1,0.1-0.3,0.3-0.4,0.4c-0.2,0.1-0.5,0.2-0.8,0.2
		c-0.3,0-0.5,0-0.8-0.2c-0.2-0.1-0.3-0.2-0.4-0.4c-0.1-0.1-0.2-0.3-0.3-0.4c-0.1-0.1-0.1-0.3-0.1-0.4c0-0.1,0-0.3,0-0.4v-0.2v-3.6
		c0-0.3,0-0.6,0.2-0.9c0.1-0.2,0.2-0.4,0.4-0.5c0.3-0.3,0.7-0.5,1.1-0.4c0.4,0,0.8,0.1,1.1,0.4c0.1,0.2,0.3,0.3,0.4,0.5
		c0.1,0.3,0.2,0.6,0.2,0.9c0,0.1,0,0.3-0.2,0.4c-0.2,0.2-0.5,0.2-0.8,0c-0.1-0.1-0.2-0.3-0.2-0.4c0-0.1,0-0.3,0-0.4
		c0-0.1-0.1-0.2-0.1-0.2c0,0-0.1-0.1-0.2-0.1c-0.1,0-0.1,0-0.2,0c-0.1,0-0.1,0-0.2,0c-0.1,0-0.1,0-0.2,0.1c-0.1,0.1-0.1,0.1-0.2,0.2
		c0,0.1-0.1,0.3-0.1,0.4v3.7l0,0v0.1c0,0.1,0,0.1,0,0.2l0,0.2c0,0.1,0,0.1,0.1,0.2c0,0,0.1,0.1,0.1,0.1c0.1,0,0.2,0.1,0.3,0.1
		c0.1,0,0.2,0,0.3-0.1c0,0,0.1-0.1,0.1-0.1c0,0,0.1-0.1,0.1-0.2c0-0.1,0-0.1,0.1-0.2c0,0,0-0.1,0-0.2v-1.1h-0.4
		c-0.3,0-0.5-0.3-0.5-0.6l0,0c0-0.3,0.2-0.6,0.5-0.6l0,0h1.5v2C17.7,34.2,17.7,34.3,17.7,34.4L17.7,34.4z M21.5,34.5
		c0,0.1,0,0.2,0,0.4c0,0.1-0.1,0.3-0.1,0.4c-0.1,0.1-0.2,0.3-0.3,0.4c-0.3,0.4-0.8,0.5-1.2,0.5c-0.3,0-0.5,0-0.8-0.2
		c-0.2-0.1-0.3-0.2-0.4-0.4c-0.1-0.1-0.2-0.3-0.3-0.4c-0.1-0.1-0.1-0.3-0.1-0.4c0-0.1,0-0.3,0-0.4v-5.1c0-0.3,0.2-0.6,0.5-0.6l0,0
		c0.1,0,0.3,0.1,0.4,0.2c0.1,0.1,0.2,0.3,0.2,0.4v5.1c0,0.1,0,0.1,0,0.2l0,0.2c0,0.1,0,0.1,0.1,0.2c0,0,0.1,0.1,0.1,0.1
		c0.1,0,0.2,0.1,0.3,0.1c0.1,0,0.2,0,0.3-0.1l0.1-0.1c0.1-0.1,0.1-0.2,0.2-0.3c0-0.1,0-0.2,0-0.3v-5c0-0.3,0.2-0.6,0.5-0.6
		c0.3,0,0.5,0.3,0.5,0.6v4.9C21.6,34.3,21.5,34.3,21.5,34.5L21.5,34.5z"/>
</g>
</svg>
