<?xml version="1.0" encoding="utf-8"?>
<!-- Generator: Adobe Illustrator 25.0.0, SVG Export Plug-In . SVG Version: 6.00 Build 0)  -->
<svg version="1.1" id="Layer_1" xmlns:v="https://vecta.io/nano"
	 xmlns="http://www.w3.org/2000/svg" xmlns:xlink="http://www.w3.org/1999/xlink" x="0px" y="0px" viewBox="0 0 121.8 157.7"
	 style="enable-background:new 0 0 121.8 157.7;" xml:space="preserve">
<path d="M62.2,66.9c0.6,0.3,1.1,0.9,1.3,1.5c0.5,1.3-0.1,2.8-1.4,3.3l0,0l-5.3,2.2c-0.6,0.2-1.3,0.2-1.9-0.1
	c-0.6-0.3-1.1-0.8-1.3-1.4c-0.3-0.6-0.3-1.4,0.1-2c0.3-0.6,0.7-1.1,1.3-1.2l5.3-2.2C60.9,66.6,61.6,66.6,62.2,66.9z M105.8,2.9
	L3.1,12.3v2.5H3v58.4c1.9-1.1,4.2-1.1,6.1-0.1V15.8h90.3c3.7,0,6.7,3.2,6.7,7.2v119c0,3.9-3,7.2-6.7,7.2h-6.1
	c-0.1,0.4-0.2,0.6-0.4,1c-0.4,0.9-0.9,1.8-1.6,2.6h8.1c3.5,0,6.7-1.9,8.5-5c4.5-1.1,7.8-5.4,7.9-10.5V13.7
	C115.8,7.8,111.3,2.9,105.8,2.9L105.8,2.9z M112.4,137.3c0,2.4-1.1,4.7-3.1,6c0.1-0.4,0.1-0.9,0.1-1.3V23c0-5.9-4.5-10.7-10-10.8
	l0,0H42.6l63.2-5.7c3.7,0,6.7,3.2,6.7,7.2L112.4,137.3L112.4,137.3z M20.1,75.8c1.7,0,3,1.4,3,3.2v0.1v35.5c0,1.8-1.3,3.2-3,3.2l0,0
	c-1.6,0-3-1.4-3-3.2l0,0l0,0v-12.3H9.3v12.3c0,1.8-1.3,3.2-3,3.2l0,0c-1.6,0-3-1.4-3-3.2l0,0l0,0V79.1c0-1.8,1.3-3.2,3-3.2l0,0
	c1.6,0,3,1.4,3,3.2l0,0v16.8h7.8V79.1C17.1,77.3,18.4,75.9,20.1,75.8L20.1,75.8z M45.6,107.2v1.2c0,0.7-0.1,1.4-0.3,2
	c-0.2,0.9-0.5,1.6-0.8,2.5c-0.4,0.9-0.9,1.7-1.5,2.4c-0.7,0.8-1.6,1.5-2.5,2c-1.3,0.7-2.8,1-4.3,1c-1.5,0.1-2.9-0.3-4.3-1
	c-0.9-0.5-1.7-1.1-2.5-2c-0.7-0.7-1.1-1.6-1.5-2.5c-0.3-0.8-0.6-1.6-0.7-2.6c-0.1-0.7-0.2-1.4-0.2-2.2V86.2c-0.1-1.8,0.3-3.6,1-5.2
	c0.5-1.1,1.2-2.2,2.1-3c1.7-1.7,3.9-2.7,6.2-2.6c1.1,0,2.3,0.2,3.4,0.6c1.1,0.4,2.2,1.1,3.1,2c0.9,0.9,1.7,2.1,2.2,3.4
	c0.6,1.5,0.9,3.2,0.9,4.9L45.6,107.2z M38.6,111c0.3-0.3,0.4-0.6,0.5-0.9c0.1-0.4,0.2-0.7,0.3-1.1c0.1-0.3,0.1-0.6,0.1-0.9v-0.6
	V86.3c0-0.8-0.1-1.6-0.4-2.3c-0.2-0.5-0.5-1-0.9-1.4c-0.3-0.3-0.7-0.5-1.1-0.6c-0.3-0.1-0.7-0.1-1.1-0.1S35.3,82,35.1,82
	c-0.4,0.1-0.7,0.3-1.1,0.6c-0.4,0.4-0.7,0.8-0.9,1.3c-0.3,0.7-0.4,1.6-0.4,2.4V108c0,0.4,0.1,0.7,0.1,1c0.1,0.4,0.2,0.7,0.3,1.1
	s0.3,0.6,0.5,0.9c0.2,0.2,0.4,0.4,0.7,0.5c0.5,0.3,1.1,0.4,1.7,0.4c0.6,0.1,1.3-0.1,1.8-0.4C38.1,111.3,38.3,111.2,38.6,111z
	 M68,107.1v1.1c0,0.7-0.1,1.4-0.3,2.1c-0.2,0.9-0.4,1.8-0.8,2.6c-0.4,0.9-0.9,1.9-1.6,2.6c-0.7,0.8-1.6,1.5-2.5,2
	c-1.3,0.7-2.8,1-4.3,1c-1.5,0.1-2.9-0.3-4.3-1c-0.9-0.5-1.7-1.2-2.5-2c-0.7-0.7-1.1-1.6-1.5-2.5c-0.3-0.8-0.6-1.6-0.8-2.6
	c-0.1-0.7-0.2-1.4-0.2-2.2v-22c-0.1-1.8,0.3-3.6,1-5.2c0.5-1.1,1.2-2.2,2.1-3c1.7-1.6,3.9-2.6,6.2-2.6c1.2,0,2.3,0.2,3.4,0.6
	c1.1,0.4,2.2,1.1,3.1,2s1.7,2.1,2.2,3.4c0.6,1.5,0.9,3.2,0.9,4.9c0,0.9-0.3,1.7-0.9,2.3c-1.2,1.2-3.1,1.2-4.3,0
	C62.2,88,62,87.2,62,86.3c0-0.8-0.1-1.6-0.4-2.3c-0.2-0.5-0.5-0.9-0.9-1.3c-0.3-0.3-0.7-0.5-1.1-0.6C59.2,82,58.9,82,58.5,82
	c-0.3,0-0.6,0.1-0.9,0.1c-0.4,0.1-0.7,0.3-1.1,0.6c-0.4,0.4-0.7,0.8-0.9,1.3c-0.3,0.7-0.4,1.6-0.4,2.4V108c0,0.4,0.1,0.7,0.1,1
	c0.1,0.4,0.2,0.8,0.3,1.1c0.1,0.4,0.3,0.6,0.5,0.9c0.2,0.2,0.4,0.4,0.7,0.5c0.5,0.3,1.1,0.4,1.7,0.4c0.6,0.1,1.3-0.1,1.8-0.4
	c0.3-0.1,0.5-0.4,0.7-0.6c0.5-0.5,0.8-1.1,0.9-1.9l0.2-1.6v-0.6c0-0.4,0.1-0.8,0.3-1.1c0.2-0.4,0.5-0.9,0.8-1.1
	c0.5-0.4,1.1-0.6,1.7-0.6c0.6-0.1,1.3,0.1,1.8,0.4C67.4,105,67.9,106,68,107.1L68,107.1z M90.9,108.5c0,0.7-0.1,1.4-0.3,2.1
	c-0.2,0.9-0.5,1.6-0.8,2.5c-0.4,0.9-0.9,1.7-1.5,2.4c-0.7,0.8-1.6,1.5-2.5,2c-1.3,0.7-2.8,1-4.3,1c-1.5,0.1-2.9-0.3-4.3-1
	c-0.9-0.5-1.7-1.2-2.5-2c-0.7-0.7-1.1-1.6-1.5-2.5c-0.3-0.8-0.6-1.6-0.7-2.6c-0.1-0.7-0.2-1.4-0.2-2.2v-29c0-1.8,1.3-3.2,3-3.2
	s3,1.4,3,3.2v28.9c0,0.4,0.1,0.7,0.1,1c0.1,0.4,0.2,0.7,0.3,1.1c0.1,0.4,0.3,0.6,0.5,0.9c0.2,0.2,0.4,0.4,0.7,0.5
	c0.5,0.3,1.1,0.4,1.7,0.4c0.6,0.1,1.3-0.1,1.8-0.4c0.3-0.1,0.5-0.4,0.7-0.5c0.5-0.5,0.7-1.2,0.9-1.9c0.1-0.5,0.1-1.1,0.1-1.6V79.3
	c0-1.8,1.3-3.2,3-3.2s3,1.4,3,3.2v28C90.9,107.5,90.9,107.9,90.9,108.5L90.9,108.5z M18.3,151.1c-0.2,0.6-0.6,1.1-1.1,1.4
	c-0.3,0.1-0.7,0.2-1,0.2c-0.9,0-1.7-0.5-2-1.4l-5.5-11.8L7,142.4v7.8c0,1.3-1,2.4-2.2,2.4l0,0c-0.6,0-1.1-0.3-1.6-0.7
	s-0.7-1.1-0.7-1.7v-26.5c0-1.3,1-2.4,2.2-2.4l0,0c0.6,0,1.1,0.3,1.6,0.7c0.4,0.4,0.7,1.1,0.7,1.7v9.5l6.1-10.7
	c0.3-0.6,0.8-0.9,1.4-1.1c0.6-0.1,1.2-0.1,1.7,0.3c0.5,0.4,0.9,0.9,1,1.5s0.1,1.3-0.3,1.8l-5.5,9.6l6.8,14.3
	C18.4,149.8,18.5,150.5,18.3,151.1L18.3,151.1z M32.4,121.3c1.2,0,2.2,1.1,2.3,2.4v0.1v26.9l0,0v0.1l-0.1,0.1l0,0v0.1v0.1v0.1v0.1
	v0.1v0.1v0.1l0,0v0.1h-0.1l0,0l0,0c0,0,0,0.1-0.1,0.1l0,0v0.1h-0.1v0.1l0,0l0,0v0.1h-0.1c0,0,0,0.1-0.1,0.1l-0.1,0.1l-0.1,0.1
	l-0.1,0.1h-0.2l-0.1,0.1l-0.1,0.1h-0.1v0.1h-0.1h-0.1l0,0l-0.1,0.1c-0.1,0.1-0.2,0.1-0.3,0.1s-0.2,0.1-0.3,0.1s-0.3,0.1-0.5,0h-0.3
	H32V153h-0.1v-0.1h-0.1c-0.1,0-0.1-0.1-0.2-0.1h-0.1l0,0h-0.1l0,0c0,0-0.1,0-0.1-0.1h-0.1l0,0h-0.1l0,0c-0.3-0.2-0.5-0.4-0.7-0.8
	v-0.1h-0.1v-0.1l0,0l-0.1-0.1v-0.1L24,135.4v14.9c0,1.3-1,2.4-2.2,2.4l0,0c-1.2,0-2.3-1.1-2.3-2.4l0,0v-26.9v-0.1v-0.1l0.1-0.1l0,0
	V123l0,0v0v-0.1v-0.1v-0.1v-0.1l0,0v-0.1l0.1-0.1v-0.1l0,0l0.1-0.1l0,0c0,0,0.1-0.1,0-0.1h0.1l0,0V122l0,0c0,0,0-0.1,0.1-0.1
	l0.1-0.1v0.2H20v-0.1c0,0,0.1,0,0.1-0.1l0,0l0.1-0.1l0.1-0.1h0.3v-0.1l0,0l0,0h0.1l0,0l0.1-0.1c0.1-0.1,0.3-0.1,0.5-0.2h0.1
	c0.2,0,0.4-0.1,0.5-0.1H22l0.1,0.1h0.2l0,0h0.1c0,0,0,0.1,0.1,0.1l0.1,0.1h0.1h0.1c0,0,0,0.1,0.1,0.1l0,0c0.1,0,0.1,0,0.1,0.1h0.1
	l0,0h0.1l0.1,0.1v0.1H23h0.1l0.1,0.1l0,0l0,0h0.1v0.1l0,0h0.1v0.1l0.1,0.1l0.1,0.1l0.1,0.1v0.1h0.1v0.1l0,0v0.1v0.1l0.1,0.1l0,0v0.1
	v0.1l6.4,15.8V124c0-1.4,1-2.4,2.2-2.4C32.3,121.3,32.3,121.3,32.4,121.3L32.4,121.3L32.4,121.3z M50.7,145.5c0,0.5-0.1,1-0.2,1.5
	c-0.1,0.6-0.3,1.3-0.6,1.9c-0.3,0.6-0.7,1.3-1.1,1.8c-0.5,0.6-1.2,1.1-1.9,1.5c-1,0.5-2.1,0.8-3.2,0.7c-1.1,0.1-2.2-0.2-3.2-0.7
	c-0.7-0.4-1.3-0.9-1.9-1.5c-0.5-0.6-0.9-1.3-1.2-2c-0.3-0.6-0.5-1.3-0.5-2c-0.1-0.5-0.1-1.1-0.1-1.6v-0.8c0.1-0.4,0.2-0.8,0.5-1.1
	c0.2-0.3,0.5-0.6,0.7-0.8c0.4-0.3,0.9-0.4,1.3-0.4c0.5-0.1,0.9,0.1,1.2,0.4c0.3,0.3,0.5,0.6,0.6,0.9c0.1,0.4,0.2,0.9,0.2,1.3v0.6
	c0,0.3,0,0.5,0.1,0.8s0.1,0.6,0.3,0.9c0.1,0.3,0.2,0.5,0.4,0.7c0.1,0.1,0.3,0.3,0.5,0.4c0.4,0.2,0.9,0.3,1.3,0.3
	c0.5,0.1,0.9-0.1,1.3-0.3c0.2-0.1,0.3-0.3,0.5-0.4c0.2-0.2,0.3-0.4,0.4-0.7c0.1-0.3,0.2-0.5,0.2-0.8c0.1-0.2,0.1-0.5,0.1-0.7V145
	v-21.3c0-1.3,1-2.4,2.2-2.4l0,0c0.6,0,1.1,0.3,1.6,0.7s0.7,1.1,0.7,1.7v21C50.7,144.7,50.7,145.1,50.7,145.5z M55.8,121.3
	c0.6,0,1.2,0.2,1.6,0.7c0.4,0.4,0.7,1.1,0.7,1.7v26.6c0,0.6-0.2,1.3-0.7,1.7c-0.4,0.5-1,0.7-1.6,0.7c-1.3,0-2.3-1.1-2.3-2.4l0,0
	v-26.6C53.6,122.5,54.6,121.4,55.8,121.3L55.8,121.3L55.8,121.3z M74.5,145.7c0,0.5-0.1,1-0.2,1.5c-0.1,0.6-0.3,1.2-0.6,1.9
	c-0.3,0.6-0.7,1.3-1.1,1.8c-0.5,0.6-1.2,1.1-1.9,1.5c-1,0.5-2.1,0.8-3.2,0.7c-1.1,0.1-2.2-0.2-3.2-0.7c-0.7-0.4-1.3-0.9-1.9-1.5
	c-0.5-0.6-0.9-1.2-1.1-1.9c-0.3-0.6-0.4-1.2-0.5-1.9c-0.1-0.5-0.1-1.1-0.2-1.6v-1v-15.4c-0.1-1.4,0.2-2.7,0.7-3.9
	c0.4-0.9,0.9-1.6,1.5-2.3c1.3-1.3,2.9-2,4.6-1.9c1.7-0.1,3.3,0.6,4.6,1.9c0.6,0.7,1.1,1.4,1.5,2.3c0.5,1.2,0.8,2.6,0.7,3.9
	c0,0.6-0.2,1.3-0.7,1.7c-0.9,0.9-2.3,0.9-3.2,0c-0.5-0.4-0.7-1.1-0.7-1.7c0-0.6-0.1-1.1-0.2-1.6c-0.1-0.4-0.3-0.7-0.6-1
	c-0.2-0.2-0.5-0.4-0.8-0.5s-0.6-0.1-0.9-0.1s-0.5,0.1-0.7,0.1c-0.3,0.1-0.5,0.2-0.8,0.4c-0.3,0.3-0.5,0.6-0.7,1
	c-0.2,0.6-0.3,1.1-0.3,1.8v15.6l-0.1,0.1v0.6c0,0.3,0.1,0.5,0.1,0.8l0.2,0.9c0.1,0.3,0.2,0.5,0.4,0.7c0.1,0.1,0.3,0.3,0.5,0.4
	c0.4,0.2,0.8,0.3,1.3,0.3c0.5,0.1,0.9-0.1,1.3-0.3c0.2-0.1,0.3-0.3,0.5-0.4c0.2-0.2,0.3-0.4,0.4-0.7s0.2-0.5,0.3-0.8
	c0.1-0.2,0.1-0.5,0.1-0.7v-4.5H68c-1.3,0-2.3-1.1-2.3-2.4l0,0c0-1.4,1-2.4,2.2-2.4l0,0h6.2v8.7C74.5,144.9,74.5,145.2,74.5,145.7
	L74.5,145.7z M90.7,145.8c0,0.5-0.1,1-0.2,1.5c-0.1,0.6-0.3,1.2-0.6,1.9c-0.3,0.6-0.7,1.3-1.1,1.8c-1.3,1.5-3.2,2.3-5.1,2.2
	c-1.1,0.1-2.2-0.2-3.2-0.7c-0.7-0.4-1.3-0.9-1.9-1.5c-0.5-0.6-0.9-1.2-1.1-1.9c-0.3-0.6-0.4-1.2-0.5-1.9c-0.1-0.5-0.1-1.1-0.1-1.6
	v-21.7c0-1.3,1-2.4,2.2-2.4l0,0c0.6,0,1.1,0.3,1.6,0.7c0.4,0.4,0.7,1.1,0.7,1.7v21.6c0,0.3,0,0.5,0.1,0.8l0.2,0.8
	c0.1,0.3,0.2,0.5,0.4,0.7c0.1,0.1,0.3,0.3,0.5,0.4c0.4,0.2,0.8,0.3,1.3,0.3c0.5,0.1,0.9-0.1,1.3-0.3l0.5-0.4
	c0.3-0.4,0.5-0.9,0.7-1.4c0.1-0.4,0.1-0.8,0.1-1.2V124c0-1.3,1-2.4,2.3-2.4s2.3,1.1,2.3,2.4v21C90.8,145,90.7,145.3,90.7,145.8
	L90.7,145.8z"/>
</svg>
