
<svg version="1.2" baseProfile="tiny" xmlns="http://www.w3.org/2000/svg" xmlns:xlink="http://www.w3.org/1999/xlink" x="0px"
	 y="0px" viewBox="0 0 186.725 223.912" overflow="visible" xml:space="preserve">
<g id="Layer_2">
</g>
<g id="Layer_1">
	<path fill="#FDFCFD" d="M98.21,94.921c0.9,0.4,1.6,1.2,1.9,2.1c0.7,1.8-0.2,3.9-2.1,4.6l-8,3c-0.9,0.3-1.9,0.3-2.8-0.1
		s-1.6-1.1-1.9-2c-0.4-0.9-0.4-1.9,0.1-2.8c0.4-0.8,1.1-1.5,2-1.7l8-3C96.31,94.521,97.41,94.521,98.21,94.921z"/>
	<path fill="#FDFCFD" d="M163.71,5.721l-154.2,13v3.5h-0.1v81.5c2.8-1.5,6.3-1.6,9.1-0.1v-79.9h135.7c5.5,0,10,4.5,10,10v166
		c0,5.5-4.5,10-10,10h-9.2c-0.2,0.5-0.3,0.9-0.6,1.4c-0.6,1.3-1.4,2.5-2.4,3.6h12.2c5.2,0,10-2.6,12.7-7c6.8-1.5,11.7-7.6,11.8-14.6
		v-172.4C178.71,12.521,172.01,5.721,163.71,5.721L163.71,5.721z M173.71,193.121c0,3.4-1.7,6.6-4.6,8.4c0.1-0.6,0.1-1.2,0.1-1.8
		v-166c0-8.3-6.7-15-15-15h-85.4l94.9-8c5.5,0,10,4.5,10,10V193.121z"/>
	<path fill="#FDFCFD" d="M35.01,107.421c2.5,0,4.5,2,4.5,4.4c0,0,0,0,0,0.1v49.6c0,2.5-2,4.5-4.5,4.5s-4.5-2-4.5-4.5l0,0v-17.2
		h-11.7v17.2c0,2.5-2,4.5-4.5,4.5s-4.5-2-4.5-4.5l0,0v-49.6c0-2.5,2-4.5,4.5-4.5s4.5,2,4.5,4.5v23.4h11.7v-23.4
		C30.51,109.521,32.51,107.421,35.01,107.421L35.01,107.421z"/>
	<path fill="#FDFCFD" d="M73.31,151.221c0,0.3,0,0.9,0,1.7c0,1-0.2,1.9-0.4,2.8c-0.3,1.2-0.7,2.3-1.2,3.5c-0.6,1.3-1.4,2.4-2.3,3.4
		c-1.1,1.1-2.4,2.1-3.8,2.8c-2,1-4.2,1.4-6.5,1.4c-2.2,0.1-4.4-0.4-6.4-1.4c-1.4-0.7-2.6-1.6-3.7-2.8c-1-1-1.7-2.2-2.3-3.5
		c-0.5-1.1-0.9-2.3-1.1-3.6c-0.2-1-0.3-2-0.3-3v-30.6c-0.1-2.5,0.4-5,1.5-7.3c0.8-1.6,1.8-3,3.1-4.2c2.5-2.4,5.8-3.7,9.3-3.6
		c1.7,0,3.5,0.3,5.1,0.9c1.7,0.6,3.3,1.5,4.6,2.8c1.4,1.3,2.5,2.9,3.3,4.7c0.9,2.1,1.3,4.4,1.3,6.8L73.31,151.221z M62.81,156.421
		c0.4-0.4,0.6-0.8,0.8-1.3s0.3-1,0.5-1.5c0.1-0.4,0.2-0.9,0.2-1.3c0-0.4,0-0.6,0-0.8v-29.5c0-1.1-0.1-2.2-0.6-3.2
		c-0.3-0.7-0.8-1.4-1.4-1.9c-0.5-0.4-1.1-0.7-1.7-0.9c-0.5-0.1-1.1-0.2-1.6-0.2s-1,0.1-1.4,0.2c-0.6,0.1-1.1,0.4-1.6,0.8
		c-0.6,0.5-1,1.1-1.3,1.8c-0.4,1-0.6,2.2-0.6,3.3v30.3c0,0.5,0.1,1,0.1,1.4c0.1,0.5,0.3,1,0.5,1.5s0.5,0.9,0.8,1.3
		c0.3,0.3,0.6,0.5,1,0.7c0.8,0.4,1.6,0.6,2.5,0.5c0.9,0.1,1.9-0.1,2.7-0.5C62.11,156.921,62.41,156.721,62.81,156.421z"/>
	<path fill="#FDFCFD" d="M106.91,151.021c0,0.1,0,0.6,0,1.5c0,1-0.2,2-0.4,2.9c-0.3,1.3-0.6,2.5-1.2,3.6c-0.6,1.3-1.4,2.6-2.4,3.6
		c-1.1,1.1-2.4,2.1-3.8,2.8c-2,1-4.2,1.4-6.5,1.4c-2.2,0.1-4.4-0.4-6.4-1.4c-1.4-0.7-2.6-1.7-3.7-2.8c-1-1-1.7-2.2-2.3-3.5
		c-0.5-1.1-0.9-2.3-1.2-3.6c-0.2-1-0.3-2-0.3-3v-30.6c-0.1-2.5,0.4-5,1.5-7.3c0.8-1.6,1.8-3,3.1-4.2c2.5-2.3,5.9-3.6,9.3-3.6
		c1.8,0,3.5,0.3,5.1,0.9c1.7,0.6,3.3,1.5,4.6,2.8c1.4,1.3,2.5,2.9,3.3,4.7c0.9,2.1,1.3,4.4,1.3,6.8c0,1.2-0.4,2.4-1.3,3.2
		c-1.8,1.7-4.6,1.7-6.4,0c-0.9-0.8-1.3-2-1.3-3.2c0-1.1-0.1-2.2-0.6-3.2c-0.3-0.7-0.8-1.3-1.4-1.8c-0.5-0.4-1.1-0.7-1.7-0.9
		c-0.6-0.1-1.1-0.2-1.7-0.2c-0.5,0-0.9,0.1-1.4,0.2c-0.6,0.2-1.1,0.4-1.6,0.8c-0.6,0.5-1,1.1-1.4,1.8c-0.4,1-0.6,2.2-0.6,3.3v30.3
		c0,0.5,0.1,1,0.1,1.4c0.1,0.5,0.3,1.1,0.5,1.6s0.5,0.9,0.8,1.3c0.3,0.3,0.6,0.5,1,0.7c0.8,0.4,1.7,0.6,2.5,0.5
		c0.9,0.1,1.9-0.1,2.7-0.5c0.4-0.2,0.7-0.5,1-0.8c0.7-0.7,1.2-1.6,1.3-2.6c0.1-0.8,0.2-1.5,0.3-2.3v-0.9c0-0.6,0.1-1.1,0.4-1.6
		c0.3-0.6,0.7-1.2,1.2-1.6c0.7-0.5,1.6-0.8,2.5-0.8c0.9-0.1,1.9,0.1,2.7,0.6C106.01,148.121,106.81,149.521,106.91,151.021
		L106.91,151.021z"/>
	<path fill="#FDFCFD" d="M141.31,153.021c0,1-0.2,1.9-0.4,2.9c-0.3,1.2-0.7,2.3-1.2,3.5c-0.6,1.3-1.4,2.4-2.3,3.4
		c-1.1,1.1-2.4,2.1-3.8,2.8c-2,1-4.2,1.4-6.5,1.4c-2.2,0.1-4.4-0.4-6.4-1.4c-1.4-0.7-2.6-1.7-3.7-2.8c-1-1-1.7-2.2-2.3-3.5
		c-0.5-1.1-0.9-2.3-1.1-3.6c-0.2-1-0.3-2-0.3-3v-40.5c0-2.5,2-4.5,4.5-4.5s4.5,2,4.5,4.5v40.3c0,0.5,0.1,1,0.1,1.4
		c0.1,0.5,0.3,1,0.5,1.5s0.5,0.9,0.8,1.3c0.3,0.3,0.6,0.5,1,0.7c0.8,0.4,1.6,0.5,2.5,0.5c0.9,0.1,1.9-0.1,2.7-0.5
		c0.4-0.2,0.7-0.5,1-0.7c0.7-0.7,1.1-1.7,1.3-2.7c0.1-0.7,0.2-1.5,0.2-2.2v-39.5c0-2.5,2-4.5,4.5-4.5c2.5,0,4.5,2,4.5,4.5v39.1
		C141.41,151.621,141.31,152.221,141.31,153.021z"/>
	<path fill="#FDFCFD" d="M32.31,212.421c-0.3,0.9-0.9,1.6-1.7,1.9c-0.5,0.2-1,0.3-1.5,0.3c-1.3,0-2.5-0.7-3-1.9l-8.3-16.4l-2.6,4.1
		v10.9c0,1.9-1.5,3.4-3.4,3.4c-0.9,0-1.7-0.4-2.4-1s-1-1.5-1-2.4v-37c0-1.9,1.5-3.4,3.4-3.4c0.9,0,1.7,0.4,2.4,1
		c0.6,0.6,1,1.5,1,2.4v13.3l9.2-14.9c0.4-0.8,1.2-1.3,2.1-1.5s1.8-0.1,2.6,0.4c0.8,0.5,1.3,1.2,1.5,2.1c0.2,0.9,0.1,1.8-0.5,2.5
		l-8.2,13.4l10.2,20C32.51,210.621,32.61,211.621,32.31,212.421z"/>
	<path fill="#FDFCFD" d="M53.51,170.921c1.8,0,3.3,1.5,3.4,3.3c0,0,0,0,0,0.1v37.6l0,0v0.2l-0.1,0.1l0,0v0.1c0,0,0,0,0,0.1v0.1v0.1
		v0.1v0.1v0.1l0,0v0.1h-0.1l0,0l0,0c0,0,0,0.1-0.1,0.1l0,0v0.1h-0.1v0.1l0,0l0,0c0,0,0,0,0,0.1h-0.1c0,0,0,0.1-0.1,0.1l-0.1,0.1
		l-0.1,0.1l-0.1,0.1h-0.3l-0.1,0.1l-0.1,0.1c0,0,0,0-0.1,0v0.1h-0.1c0,0,0,0-0.1,0l0,0l-0.1,0.1c-0.1,0.1-0.3,0.1-0.4,0.2
		c-0.1,0-0.3,0.1-0.4,0.1c-0.2,0-0.4,0.1-0.7,0c-0.2,0-0.3,0-0.5,0h-0.2c0,0,0,0,0-0.1h-0.2v-0.1h-0.2c-0.1,0-0.2-0.1-0.3-0.1h-0.1
		l0,0h-0.1l0,0c0,0-0.1,0-0.1-0.1h-0.1l0,0h-0.1l0,0c-0.4-0.3-0.7-0.6-1-1.1v-0.1h-0.1v-0.1l0,0l-0.1-0.1v-0.1l-9.6-22.1v20.8
		c0,1.9-1.5,3.4-3.4,3.4c-1.9,0-3.4-1.5-3.4-3.4v-37.5v-0.1v-0.2l0.1-0.1l0,0v-0.1l0,0v-0.1v-0.1v-0.1c0,0,0,0,0-0.1s0-0.1,0-0.1
		l0,0v-0.1l0.1-0.1v-0.1l0,0l0.1-0.1l0,0c0,0,0.1-0.1,0-0.1h0.1l0,0c0,0,0,0,0-0.1l0,0c0,0,0-0.1,0.1-0.1l0.1-0.1v-0.2h0.1v-0.1
		c0,0,0.1,0,0.1-0.1l0,0l0.1-0.1l0.1-0.1h0.4v-0.1l0,0l0,0c0,0,0,0,0.1,0l0,0l0.1-0.1c0.2-0.1,0.5-0.2,0.8-0.3h0.1
		c0.3,0,0.6-0.1,0.8-0.1h0.2l0.1,0.1h0.3l0,0h0.2c0,0,0,0.1,0.1,0.1c0,0,0.1,0.1,0.2,0.1h0.1h0.1c0,0,0,0.1,0.1,0.1l0,0
		c0.1,0,0.1,0,0.1,0.1h0.1l0,0c0,0,0,0,0.1,0l0.1,0.1v0.1h0.1h0.2l0.1,0.1l0,0l0,0c0,0,0,0,0.1,0v0.2l0,0c0,0,0,0,0.1,0v0.1l0.1,0.1
		l0.1,0.1l0.1,0.1v0.1h0.1v0.1l0,0c0,0.1,0,0.1,0,0.1v0.1l0.1,0.1l0,0v0.1v0.1l9.6,22.1v-20.8c0-1.9,1.5-3.4,3.3-3.4
		C53.41,170.921,53.41,170.921,53.51,170.921L53.51,170.921z"/>
	<path fill="#FDFCFD" d="M80.91,204.621c0,0.7-0.1,1.4-0.3,2.1c-0.2,0.9-0.5,1.8-0.9,2.6c-0.4,0.9-1,1.8-1.7,2.5
		c-0.8,0.8-1.8,1.5-2.8,2.1c-1.5,0.7-3.2,1.1-4.8,1c-1.7,0.1-3.3-0.3-4.8-1c-1-0.5-2-1.2-2.8-2.1c-0.7-0.8-1.3-1.8-1.8-2.8
		c-0.4-0.9-0.7-1.8-0.8-2.8c-0.1-0.7-0.2-1.5-0.2-2.3v-1.1c0.1-0.5,0.3-1.1,0.7-1.5c0.3-0.4,0.7-0.8,1.1-1.1c0.6-0.4,1.3-0.5,2-0.5
		c0.7-0.1,1.3,0.2,1.8,0.6c0.4,0.4,0.7,0.8,0.9,1.3c0.2,0.6,0.3,1.2,0.3,1.8v0.8c0,0.4,0,0.7,0.1,1.1c0.1,0.4,0.2,0.8,0.4,1.2
		c0.1,0.4,0.3,0.7,0.6,1c0.2,0.2,0.4,0.4,0.7,0.5c0.6,0.3,1.3,0.4,1.9,0.4c0.7,0.1,1.4-0.1,2-0.4c0.3-0.2,0.5-0.4,0.7-0.6
		c0.3-0.3,0.5-0.6,0.6-1s0.3-0.7,0.3-1.1c0.1-0.3,0.1-0.7,0.1-1s0-0.5,0-0.6v-29.7c0-1.9,1.5-3.4,3.4-3.4c0.9,0,1.7,0.4,2.4,1
		c0.7,0.6,1,1.5,1,2.4v29.3C81.01,203.521,80.91,204.021,80.91,204.621z"/>
	<path fill="#FDFCFD" d="M88.71,170.921c0.9,0,1.8,0.3,2.4,1c0.6,0.6,1,1.5,1,2.4v37.1c0,0.9-0.3,1.8-1,2.4c-0.6,0.7-1.5,1-2.4,1
		c-1.9,0-3.4-1.5-3.4-3.3l0,0v-37.1C85.31,172.521,86.81,171.021,88.71,170.921L88.71,170.921L88.71,170.921z"/>
	<path fill="#FDFCFD" d="M116.71,204.921c0,0.7-0.1,1.4-0.3,2.1c-0.2,0.9-0.5,1.7-0.9,2.6c-0.4,0.9-1,1.8-1.7,2.5
		c-0.8,0.8-1.8,1.5-2.9,2.1c-1.5,0.7-3.2,1.1-4.8,1c-1.7,0.1-3.3-0.3-4.8-1c-1-0.5-2-1.2-2.8-2.1c-0.7-0.8-1.3-1.7-1.7-2.6
		c-0.4-0.9-0.6-1.7-0.8-2.7c-0.2-0.7-0.2-1.5-0.3-2.2c0-0.5,0-0.9,0-1.4v-21.5c-0.1-1.9,0.3-3.8,1.1-5.5c0.6-1.2,1.4-2.2,2.3-3.2
		c1.9-1.8,4.4-2.8,6.9-2.7c2.6-0.1,5,0.9,6.9,2.6c0.9,0.9,1.7,2,2.3,3.2c0.8,1.7,1.2,3.6,1.1,5.5c0,0.9-0.3,1.8-1,2.4
		c-1.3,1.3-3.4,1.3-4.8,0c-0.7-0.6-1-1.5-1-2.4c0-0.8-0.1-1.6-0.3-2.3c-0.2-0.5-0.5-1-0.9-1.4c-0.3-0.3-0.7-0.6-1.2-0.7
		c-0.4-0.1-0.9-0.2-1.3-0.2s-0.7,0.1-1.1,0.1c-0.4,0.1-0.8,0.3-1.2,0.6c-0.4,0.4-0.8,0.8-1,1.4c-0.3,0.8-0.5,1.6-0.4,2.5v21.8
		l-0.1,0.1c0,0.2,0,0.4,0,0.8c0,0.4,0.1,0.7,0.1,1.1c0.1,0.4,0.2,0.8,0.3,1.2c0.1,0.4,0.3,0.7,0.6,1c0.2,0.2,0.5,0.4,0.7,0.5
		c0.6,0.3,1.2,0.4,1.9,0.4c0.7,0.1,1.4-0.1,2-0.4c0.3-0.2,0.5-0.4,0.8-0.6c0.3-0.3,0.5-0.6,0.6-1s0.3-0.7,0.4-1.1
		c0.1-0.3,0.1-0.7,0.1-1v-6.3h-2.5c-1.9,0-3.4-1.5-3.4-3.3l0,0c0-1.9,1.5-3.4,3.3-3.4l0,0h9.3v12.1
		C116.71,203.821,116.71,204.221,116.71,204.921z"/>
	<path fill="#FDFCFD" d="M141.11,205.021c0,0.7-0.1,1.4-0.3,2.1c-0.2,0.9-0.5,1.7-0.9,2.6c-0.4,0.9-1,1.8-1.7,2.5
		c-2,2.1-4.8,3.2-7.7,3.1c-1.7,0.1-3.3-0.3-4.8-1c-1-0.5-2-1.2-2.8-2.1c-0.7-0.8-1.3-1.7-1.7-2.6c-0.4-0.9-0.6-1.7-0.8-2.7
		c-0.2-0.7-0.2-1.5-0.2-2.2v-30.3c0-1.9,1.5-3.4,3.4-3.4c0.9,0,1.7,0.4,2.4,1c0.6,0.6,1,1.5,1,2.4v30.1c0,0.4,0,0.7,0.1,1.1
		c0.1,0.4,0.2,0.8,0.3,1.1c0.1,0.4,0.3,0.7,0.6,1c0.2,0.2,0.5,0.4,0.7,0.5c0.6,0.3,1.2,0.4,1.9,0.4c0.7,0.1,1.4-0.1,2-0.4
		c0.3-0.2,0.5-0.3,0.8-0.5c0.5-0.6,0.8-1.3,1-2c0.1-0.6,0.2-1.1,0.2-1.7v-29.6c0-1.9,1.5-3.4,3.4-3.4s3.4,1.5,3.4,3.4v29.3
		C141.21,203.921,141.11,204.321,141.11,205.021z"/>
</g>
</svg>
